<?xml version="1.0" encoding="utf-8"?>
<!-- Generator: Adobe Illustrator 27.0.0, SVG Export Plug-In . SVG Version: 6.00 Build 0)  -->
<svg version="1.1" id="Capa_1" xmlns="http://www.w3.org/2000/svg" xmlns:xlink="http://www.w3.org/1999/xlink" x="0px" y="0px"
	 viewBox="0 0 512 512" style="enable-background:new 0 0 512 512;" xml:space="preserve">
<style type="text/css">
	.st0{fill:#E10F1A;}
	.st1{fill:#020203;}
	.st2{fill:#FFFFFF;}
</style>
<path class="st0" d="M487.8,512H24.2C10.9,512,0,501.1,0,487.8V24.2C0,10.9,10.9,0,24.2,0h463.5C501.1,0,512,10.9,512,24.2v463.5
	C512,501.1,501.1,512,487.8,512z"/>
<g>
	<g>
		<path class="st1" d="M114.8,271.1H52.1v93.2h40.5v-38.9c0,0,35.3,23,50.8-10.7C158.8,281,124.7,271.1,114.8,271.1z M94.5,311.6
			v-21.8c0,0,13.1-1.6,13.1,10.9C107.6,313.2,94.5,311.6,94.5,311.6z"/>
		<path class="st2" d="M197.2,272.9l-0.3-17.3v-3.1c3.2-1.1,6.3-2.4,9.3-4.1c8.3-4.6,14.8-11,19.6-19.3c4.8-8.2,7.2-17.4,7.2-27.7
			c0-10.2-2.4-19.5-7.2-27.7c-4.8-8.2-11.3-14.6-19.6-19.2c-8.2-4.6-17.3-6.9-27.2-6.9c-9.9,0-19,2.3-27.3,6.9
			c-8.3,4.6-14.9,11-19.7,19.2c-4.9,8.2-7.3,17.4-7.3,27.7c0,10.3,2.4,19.5,7.3,27.7c4.9,8.2,11.4,14.6,19.7,19.3
			c2.2,1.2,4.4,2.3,6.6,3.1v19.6l-0.7,93.2h76.8V340h-37.3V272.9L197.2,272.9z M152.6,201.6c0-14.9,12.1-27,27-27
			c14.9,0,27,12.1,27,27c0,11.2-6.8,20.7-16.5,24.8l8.8,15.2h-38.5l8.8-15.2C159.4,222.4,152.6,212.8,152.6,201.6z"/>
		<path class="st2" d="M365.2,364.3h-40.4l-6.6-18.3l-9.3-25.8c0.7-1.1,1.1-2.4,1.1-3.8c0-3.1-2.1-5.7-4.9-6.6l-0.9-2.6h-3.4l-1,3.1
			c-2.2,1.2-3.8,3.5-3.8,6.2c0,1.2,0.3,2.3,0.8,3.2l-8.5,27.3l-5.4,17.3h-41l2.5-6.7l31.7-86.5h55.6L365.2,364.3z"/>
		<polygon class="st1" points="399.2,292.2 383.8,271.1 343.7,271.1 377.4,322 377.4,364.3 419.6,364.3 419.6,321.8 454.9,271.1 
			413.7,271.1 		"/>
		<polygon class="st1" points="117.3,229.4 85.5,229.4 85.5,149.4 52.5,149.4 52.5,254.3 117.3,254.3 		"/>
		<path class="st1" d="M266.4,248.3c7.8,4.5,17.1,6.7,27.7,6.7c9.1,0,17.3-1.7,24.5-5.1c7.2-3.4,13-8.2,17.6-14.4
			c4.5-6.2,7.5-13.5,9-21.8h-34.8c-1.6,3.5-3.8,6.1-6.8,8.1c-2.9,1.9-6.3,2.9-10,2.9c-5.6,0-9.9-2.1-13.2-6.2
			c-3.2-4.1-4.8-9.7-4.8-16.7c0-7,1.6-12.6,4.8-16.7c3.2-4.1,7.6-6.2,13.2-6.2c3.8,0,7.1,1,10,2.9c2.9,1.9,5.2,4.6,6.8,8.1h34.8
			c-1.5-8.3-4.5-15.5-9-21.8c-4.5-6.2-10.4-11-17.6-14.4c-7.2-3.4-15.3-5.1-24.5-5.1c-10.6,0-19.8,2.2-27.7,6.7
			c-7.8,4.5-13.9,10.8-18.1,18.9c-4.2,8.1-6.3,17.3-6.3,27.7c0,10.4,2.1,19.6,6.3,27.7C252.5,237.5,258.5,243.8,266.4,248.3z"/>
		<polygon class="st1" points="390,208.8 420.6,254.3 459.9,254.3 421.2,199.6 457.5,149.4 420.2,149.4 390,193.6 390,149.4 
			357,149.4 357,254.3 390,254.3 		"/>
	</g>
	<polygon class="st1" points="197.2,340 234.5,340 234.5,364.3 157.7,364.3 158.5,250.2 197.2,250.2 	"/>
</g>
<g>
	<path class="st2" d="M171.4,139.2c4.5,0,9.1,0,13.6,0c0.4,0.5,0.8,0.8,1.2,0c0.6,0,1.3,0,1.9,0c-0.3,0.2-0.3,0.4,0,0.5
		c0.3,0.1,0.6,0.2,0.9,0.3c13.5,2.1,25.1,8,34.8,17.6c10.6,10.5,16.7,23.2,17.9,38.1c0.7,9.3-0.8,18.4-4,27.2
		c-4,11.1-10.4,20.9-17.2,30.4c-5.5,7.6-11.2,15-16.4,22.9c-6.3,9.1-12.6,18.1-18.9,27.2c-3.4,4.9-7.7,4.8-11.2-0.1
		c-6.5-9.3-13-18.5-19.5-27.8c-0.2-0.3-0.4-0.7-0.6-1c-7.3-10.7-15.5-20.8-22.5-31.7c-7.7-12-13.3-24.7-14.1-39.1
		c-0.9-16.5,4.3-31,15.3-43.3c10.1-11.3,22.8-18.1,37.8-20.4C170.8,139.9,171.6,140.2,171.4,139.2z M180,175.1
		c-15.5-0.3-27.5,12.6-27.3,27.1c0.2,15.1,12.3,26.8,27.7,26.8c14-0.1,26.1-12.6,26.2-27C206.6,187.4,194.4,175.1,180,175.1z"/>
	<path class="st1" d="M186.2,139.2c-0.4,0.8-0.8,0.5-1.2,0C185.4,139.2,185.8,139.2,186.2,139.2z"/>
</g>
<g>
	<path class="st1" d="M329.5,314.3h-5.8c-0.2,0-0.3,0-0.5,0c0-0.1,0-0.2,0-0.3c0-1.2-0.6-1.8-1.9-1.8h-1.2c0.3-0.8,0.6-1.1,1.9-2.1
		c0.4-0.3,0.7,0,1,0c0.1,0,0.3,0,0.4,0c1.1,0,2.2,0,3.3,0c1.2,0,2.3-0.8,2.6-2c0.1-0.8,0.2-1.6,0.2-2.3c-0.1-1.4-1.2-2.5-2.7-2.5
		c-1.2,0-2.4,0-3.6,0c-1.3,0-2.3,0.8-2.6,2.1c-0.1,0.7-0.2,1.4-0.2,2.1c0,0.3-0.1,0.5-0.3,0.7c-1.2,0.7-2,1.6-2.6,2.9
		c-0.2,0.3-0.4,0.6-0.5,0.9c-0.1,0.2-0.3,0.4-0.6,0.4c-0.7,0-1.3,0-2,0c-0.4,0-0.5-0.1-0.7-0.4c-2.3-5.2-8-8.1-13.5-6.8
		c-3.9,0.9-6.7,3.2-8.3,6.9c-0.1,0.3-0.3,0.4-0.6,0.4c-0.6,0-1.2,0-1.7,0c-0.5,0-0.7-0.1-1-0.6c-0.5-0.9-1-1.8-1.7-2.5
		c-0.3-0.4-0.9-0.7-1.3-1.1c-0.1-0.1-0.2-0.3-0.2-0.4c-0.1-0.6,0-1.2-0.1-1.9c-0.2-1.5-1.3-2.5-2.8-2.5c-1.1,0-2.3,0-3.4,0
		c-1.6,0-2.7,1.1-2.8,2.6c0,0.7,0,1.3,0.2,2c0.3,1.4,1.3,2.2,2.7,2.2c1.2,0,2.4,0.1,3.5,0c0.9-0.1,1.6,0.3,2.2,0.8
		c0.1,0,0.2,0.1,0.2,0.2c0.3,0.4,0.5,0.8,0.9,1.2h-1.4c-1.1,0-1.8,0.6-1.8,1.7c0,0.1,0,0.2,0,0.4h-6.2c-1.2,0-1.7,0.5-1.7,1.8v0.7
		c0,1.1,0.6,1.6,1.6,1.6h6.3c0,0.2,0,0.4,0,0.6c0,1.3,0.6,1.9,1.9,1.9c2.3,0,4.6,0,6.9,0c0.3,0,0.4,0.1,0.5,0.3
		c0.2,0.4,0.3,0.8,0.5,1.1c0.7,1,1.4,1.9,2,2.9c-6.3,3.7-9.2,10.8-7.8,17.6c0.3,1.5,0.8,3,1.5,4.3c1.2,2.3,2.9,4.2,5.2,5.9v-0.6
		c0-3.1,0-6.3,0-9.4c0-3.6,2.1-6.7,5.3-7.9c2.1-0.9,4.4-0.8,6.6-0.5c4.3,0.7,7.1,4.1,7.1,8.5v9.9c2-1.2,4.3-3.7,5.7-6.9
		c0.6-1.3,1-2.7,1.2-4.2c0.9-7.3-2-12.8-8-16.8c0.1-0.1,0.2-0.2,0.2-0.3c1-1.1,1.8-2.2,2.4-3.6c0.1-0.3,0.3-0.4,0.6-0.4
		c2.3,0,4.7,0,7,0c1,0,1.7-0.7,1.7-1.6v-0.8h6.2c1.2,0,1.7-0.5,1.7-1.7V316C331.2,314.9,330.6,314.3,329.5,314.3z M303.1,323.5
		c-2.7,0-5-1.5-6.2-3.7c-0.5-1-0.8-2.1-0.8-3.2c0-2.7,1.5-5,3.8-6.2c1-0.5,2.1-0.8,3.2-0.8c0.7,0,1.4,0.1,2.1,0.3
		c2.8,0.9,4.9,3.5,4.9,6.6c0,1.4-0.4,2.7-1.1,3.8C307.7,322.2,305.5,323.5,303.1,323.5z"/>
	<path class="st1" d="M297.6,352.9c0-3.3,0-6.6,0-10c0-2.3,1.4-4.1,3.6-4.4c1.2-0.2,2.4-0.2,3.6,0c2.2,0.3,3.6,2.1,3.6,4.3
		c0,3.1,0,6.2,0,9.4c0,3.5,0,7.1,0,10.6c0,2.7-1.9,4.6-4.6,4.6c-0.6,0-1.2,0-1.8,0c-2.6,0-4.5-1.9-4.5-4.5
		C297.6,359.6,297.6,356.3,297.6,352.9z"/>
</g>
<g>
	<path class="st2" d="M107.7,403.2v-14.8h-5.8V385h15.9v3.4h-5.8v14.8H107.7z"/>
	<path class="st2" d="M127.8,403.5c-2.6,0-4.6-0.7-6.1-2.2s-2.2-3.5-2.2-6.2V385h4.2v10c0,1.7,0.4,3,1.1,3.7s1.7,1.1,3,1.1
		s2.3-0.4,3-1.1s1.1-2,1.1-3.7v-10h4.2v10.2c0,2.7-0.7,4.7-2.2,6.2C132.4,402.8,130.4,403.5,127.8,403.5z"/>
	<path class="st2" d="M153,403.2l-7.9-18.2h4.5l6.9,16.1h-2.7l7-16.1h4.2l-7.9,18.2H153z"/>
	<path class="st2" d="M170.7,399.8h9.9v3.4h-14.1V385h13.8v3.4h-9.6V399.8z M170.4,392.3h8.8v3.3h-8.8V392.3z"/>
	<path class="st2" d="M188.2,403.2H184V385h4.2V403.2z M196.8,395.7h-8.9v-3.6h8.9V395.7z M196.5,385h4.2v18.2h-4.2V385z"/>
	<path class="st2" d="M204.7,383.5l3.5-3.7h4.4l-4.7,3.7H204.7z M205,403.2V385h4.2v18.2H205z"/>
	<path class="st2" d="M222.2,403.5c-1.4,0-2.7-0.2-3.9-0.7c-1.2-0.5-2.2-1.1-3.1-2c-0.9-0.8-1.6-1.8-2.1-3c-0.5-1.1-0.7-2.4-0.7-3.8
		s0.2-2.6,0.7-3.8c0.5-1.1,1.2-2.1,2.1-3c0.9-0.8,1.9-1.5,3.1-2c1.2-0.5,2.5-0.7,3.9-0.7c1.6,0,3,0.3,4.3,0.8s2.3,1.3,3.2,2.4
		l-2.7,2.5c-0.6-0.7-1.3-1.2-2.1-1.6c-0.8-0.4-1.6-0.5-2.5-0.5c-0.8,0-1.6,0.1-2.3,0.4c-0.7,0.3-1.3,0.7-1.8,1.2
		c-0.5,0.5-0.9,1.1-1.2,1.8s-0.4,1.5-0.4,2.4c0,0.9,0.1,1.7,0.4,2.4c0.3,0.7,0.7,1.3,1.2,1.8c0.5,0.5,1.1,0.9,1.8,1.2
		c0.7,0.3,1.5,0.4,2.3,0.4c0.9,0,1.7-0.2,2.5-0.5c0.8-0.4,1.5-0.9,2.1-1.6l2.7,2.5c-0.9,1.1-1.9,1.9-3.2,2.4
		C225.3,403.2,223.8,403.5,222.2,403.5z"/>
	<path class="st2" d="M240.6,403.5c-2.6,0-4.6-0.7-6.1-2.2s-2.2-3.5-2.2-6.2V385h4.2v10c0,1.7,0.4,3,1.1,3.7s1.7,1.1,3,1.1
		s2.3-0.4,3-1.1s1.1-2,1.1-3.7v-10h4.2v10.2c0,2.7-0.7,4.7-2.2,6.2C245.2,402.8,243.2,403.5,240.6,403.5z"/>
	<path class="st2" d="M253,403.2V385h4.2v14.8h9.1v3.4H253z"/>
	<path class="st2" d="M277.2,403.5c-1.4,0-2.8-0.2-4-0.7c-1.2-0.5-2.3-1.1-3.2-2c-0.9-0.8-1.6-1.8-2.1-3c-0.5-1.1-0.7-2.4-0.7-3.7
		c0-1.4,0.2-2.6,0.7-3.7c0.5-1.1,1.2-2.1,2.1-3c0.9-0.8,2-1.5,3.2-2c1.2-0.5,2.5-0.7,4-0.7c1.4,0,2.8,0.2,4,0.7
		c1.2,0.5,2.3,1.1,3.1,2c0.9,0.8,1.6,1.8,2.1,3c0.5,1.1,0.8,2.4,0.8,3.8c0,1.4-0.3,2.6-0.8,3.8s-1.2,2.1-2.1,3s-1.9,1.5-3.1,2
		C279.9,403.3,278.6,403.5,277.2,403.5z M277.2,399.9c0.8,0,1.6-0.1,2.2-0.4c0.7-0.3,1.3-0.7,1.8-1.2c0.5-0.5,0.9-1.1,1.2-1.8
		c0.3-0.7,0.4-1.5,0.4-2.4c0-0.9-0.1-1.7-0.4-2.4s-0.7-1.3-1.2-1.8c-0.5-0.5-1.1-0.9-1.8-1.2s-1.4-0.4-2.3-0.4
		c-0.8,0-1.6,0.1-2.2,0.4c-0.7,0.3-1.3,0.7-1.8,1.2c-0.5,0.5-0.9,1.1-1.2,1.8s-0.4,1.5-0.4,2.4c0,0.8,0.1,1.6,0.4,2.4
		c0.3,0.7,0.7,1.3,1.2,1.9c0.5,0.5,1.1,0.9,1.8,1.2C275.6,399.8,276.4,399.9,277.2,399.9z"/>
	<path class="st2" d="M303.6,403.5c-1.5,0-2.9-0.2-4.2-0.6c-1.3-0.4-2.4-0.9-3.2-1.5l1.4-3.2c0.8,0.6,1.7,1,2.8,1.4s2.1,0.5,3.2,0.5
		c0.8,0,1.5-0.1,2-0.2c0.5-0.2,0.9-0.4,1.1-0.7s0.4-0.6,0.4-1c0-0.5-0.2-0.9-0.6-1.2s-0.9-0.5-1.5-0.7s-1.3-0.4-2.1-0.5
		c-0.8-0.2-1.5-0.4-2.3-0.6s-1.4-0.6-2.1-0.9c-0.6-0.4-1.1-0.9-1.5-1.5s-0.6-1.4-0.6-2.4c0-1,0.3-2,0.8-2.8c0.6-0.9,1.4-1.5,2.5-2.1
		c1.1-0.5,2.6-0.8,4.3-0.8c1.1,0,2.3,0.1,3.4,0.4c1.1,0.3,2.1,0.7,2.9,1.2l-1.3,3.2c-0.8-0.5-1.7-0.8-2.5-1.1
		c-0.8-0.2-1.7-0.4-2.5-0.4s-1.5,0.1-2,0.3c-0.5,0.2-0.9,0.4-1.1,0.7c-0.2,0.3-0.3,0.7-0.3,1.1c0,0.5,0.2,0.8,0.6,1.1
		s0.9,0.5,1.5,0.7c0.6,0.2,1.3,0.3,2.1,0.5c0.8,0.2,1.5,0.4,2.3,0.6c0.8,0.2,1.4,0.5,2.1,0.9c0.6,0.4,1.1,0.9,1.5,1.5
		c0.4,0.6,0.6,1.4,0.6,2.4c0,1-0.3,2-0.9,2.8c-0.6,0.8-1.4,1.5-2.6,2.1C306.8,403.2,305.4,403.5,303.6,403.5z"/>
	<path class="st2" d="M318.4,399.8h9.9v3.4h-14.1V385H328v3.4h-9.6V399.8z M318.1,392.3h8.8v3.3h-8.8V392.3z"/>
	<path class="st2" d="M340.5,403.5c-1.4,0-2.8-0.2-4-0.7s-2.3-1.1-3.1-2c-0.9-0.8-1.6-1.8-2.1-3c-0.5-1.1-0.7-2.4-0.7-3.8
		s0.2-2.6,0.7-3.8c0.5-1.1,1.2-2.1,2.1-3c0.9-0.8,2-1.5,3.2-2c1.2-0.5,2.5-0.7,4-0.7c1.6,0,3.1,0.3,4.4,0.8c1.3,0.5,2.4,1.3,3.3,2.3
		l-2.7,2.5c-0.7-0.7-1.4-1.2-2.2-1.5c-0.8-0.3-1.6-0.5-2.5-0.5c-0.9,0-1.7,0.1-2.4,0.4c-0.7,0.3-1.4,0.7-1.9,1.2
		c-0.5,0.5-0.9,1.1-1.2,1.8s-0.4,1.5-0.4,2.4c0,0.8,0.1,1.6,0.4,2.3s0.7,1.3,1.2,1.9c0.5,0.5,1.2,0.9,1.9,1.2
		c0.7,0.3,1.5,0.4,2.4,0.4c0.8,0,1.6-0.1,2.4-0.4c0.8-0.3,1.6-0.7,2.3-1.4l2.4,3c-1,0.7-2.1,1.3-3.4,1.7S341.8,403.5,340.5,403.5z
		 M344,400.6v-6.8h3.8v7.4L344,400.6z"/>
	<path class="st2" d="M359.8,403.5c-2.6,0-4.6-0.7-6.1-2.2s-2.2-3.5-2.2-6.2V385h4.2v10c0,1.7,0.4,3,1.1,3.7c0.7,0.8,1.7,1.1,3,1.1
		c1.3,0,2.3-0.4,3-1.1s1.1-2,1.1-3.7v-10h4.2v10.2c0,2.7-0.7,4.7-2.2,6.2S362.4,403.5,359.8,403.5z"/>
	<path class="st2" d="M372.2,403.2V385h7.9c1.6,0,3,0.3,4.2,0.8c1.2,0.5,2.1,1.3,2.7,2.3c0.6,1,1,2.2,1,3.5c0,1.4-0.3,2.5-1,3.5
		c-0.6,1-1.6,1.7-2.7,2.2c-1.2,0.5-2.6,0.8-4.2,0.8h-5.5l1.9-1.8v6.9H372.2z M376.4,396.7l-1.9-2h5.3c1.3,0,2.3-0.3,2.9-0.8
		s1-1.3,1-2.3c0-1-0.3-1.8-1-2.3s-1.6-0.8-2.9-0.8h-5.3l1.9-2V396.7z M383.8,403.2l-4.5-6.6h4.5l4.6,6.6H383.8z"/>
	<path class="st2" d="M400.2,403.5c-1.4,0-2.8-0.2-4-0.7c-1.2-0.5-2.3-1.1-3.2-2c-0.9-0.8-1.6-1.8-2.1-3c-0.5-1.1-0.7-2.4-0.7-3.7
		c0-1.4,0.2-2.6,0.7-3.7c0.5-1.1,1.2-2.1,2.1-3c0.9-0.8,2-1.5,3.2-2c1.2-0.5,2.5-0.7,4-0.7c1.4,0,2.8,0.2,4,0.7
		c1.2,0.5,2.3,1.1,3.1,2c0.9,0.8,1.6,1.8,2.1,3c0.5,1.1,0.8,2.4,0.8,3.8c0,1.4-0.3,2.6-0.8,3.8s-1.2,2.1-2.1,3s-1.9,1.5-3.1,2
		C402.9,403.3,401.6,403.5,400.2,403.5z M400.2,399.9c0.8,0,1.6-0.1,2.2-0.4c0.7-0.3,1.3-0.7,1.8-1.2c0.5-0.5,0.9-1.1,1.2-1.8
		c0.3-0.7,0.4-1.5,0.4-2.4c0-0.9-0.1-1.7-0.4-2.4s-0.7-1.3-1.2-1.8c-0.5-0.5-1.1-0.9-1.8-1.2c-0.7-0.3-1.4-0.4-2.3-0.4
		s-1.6,0.1-2.2,0.4s-1.3,0.7-1.8,1.2c-0.5,0.5-0.9,1.1-1.2,1.8s-0.4,1.5-0.4,2.4c0,0.8,0.1,1.6,0.4,2.4c0.3,0.7,0.7,1.3,1.2,1.9
		c0.5,0.5,1.1,0.9,1.8,1.2C398.6,399.8,399.3,399.9,400.2,399.9z"/>
</g>
</svg>
